<svg xmlns="http://www.w3.org/2000/svg" viewBox="0 0 600 340" role="img" aria-label="Eco-friendly glass packaging placeholder">
<defs>
<linearGradient id="bg" x1="0" y1="0" x2="1" y2="1"><stop offset="0" stop-color="#F1EFE7"/><stop offset="1" stop-color="#DCE3D0"/></linearGradient>
</defs>
<rect width="600" height="340" fill="url(#bg)"/>
<circle cx="300" cy="170" r="130" fill="#fff" opacity=".45"/>
<ellipse cx="300" cy="308" rx="90" ry="10" fill="#1B4D2E" opacity=".14"/>
<!-- recycle-style arrows -->
<g fill="none" stroke="#B9995C" stroke-width="7" stroke-linecap="round">
<path d="M180 210a125 125 0 01100-118"/>
<path d="M420 132a125 125 0 01-96 176"/>
</g>
<g fill="#B9995C">
<path d="M284 78l14 22-28 4z"/>
<path d="M318 316l-26-6 18-22z"/>
</g>
<!-- glass bottle -->
<rect x="278" y="66" width="44" height="26" rx="6" fill="#B98B5C"/>
<path d="M282 92h36l22 30H260z" fill="#D8E8D8" opacity=".92"/>
<rect x="260" y="120" width="80" height="180" rx="16" fill="#D8E8D8" opacity=".92"/>
<rect x="270" y="136" width="9" height="140" rx="4.5" fill="#fff" opacity=".7"/>
<rect x="272" y="176" width="56" height="76" rx="8" fill="#F4F2EB"/>
<path d="M300 188c-6 5-9 11-9 16 0 6 4 10 9 10s9-4 9-10c0-5-3-11-9-16z" fill="#4E8B60"/>
<text x="300" y="232" text-anchor="middle" font-family="Arial, sans-serif" font-size="10" font-weight="bold" fill="#1B4D2E">ORGANO+</text>
<!-- leaf -->
<path d="M420 250c10-32 44-50 72-46-8 30-38 52-72 46z" fill="#3E8E52"/>
<path d="M110 250c22-24 56-28 78-18-16 26-50 36-78 18z" fill="#48A05E"/>
</svg>
