<svg xmlns="http://www.w3.org/2000/svg" viewBox="0 0 600 340" role="img" aria-label="Aloe vera plant placeholder">
<defs>
<linearGradient id="bg" x1="0" y1="0" x2="1" y2="1"><stop offset="0" stop-color="#E9F0E4"/><stop offset="1" stop-color="#CFDEC6"/></linearGradient>
</defs>
<rect width="600" height="340" fill="url(#bg)"/>
<circle cx="300" cy="170" r="130" fill="#fff" opacity=".4"/>
<ellipse cx="300" cy="312" rx="120" ry="12" fill="#1B4D2E" opacity=".14"/>
<g>
<path d="M300 46c22 52 26 116 10 172h-20c-16-56-12-120 10-172z" fill="#3E8E52"/>
<path d="M238 84c34 38 54 92 56 136l-19 7c-29-45-45-95-37-143z" fill="#48A05E"/>
<path d="M362 84c-34 38-54 92-56 136l19 7c29-45 45-95 37-143z" fill="#48A05E"/>
<path d="M192 146c38 20 68 56 83 92l-15 10c-36-29-63-63-68-102z" fill="#2F7A44"/>
<path d="M408 146c-38 20-68 56-83 92l15 10c36-29 63-63 68-102z" fill="#2F7A44"/>
</g>
<rect x="226" y="218" width="148" height="26" rx="8" fill="#C67B45"/>
<path d="M238 244h124l-14 68h-96z" fill="#B8703F"/>
<path d="M252 258h96l-3 14h-90z" fill="#A05F32" opacity=".6"/>
</svg>
