<svg xmlns="http://www.w3.org/2000/svg" viewBox="0 0 600 600" role="img" aria-label="Repair hair mask placeholder">
<defs>
<linearGradient id="bg" x1="0" y1="0" x2="1" y2="1"><stop offset="0" stop-color="#F1EFE7"/><stop offset="1" stop-color="#DBD6C2"/></linearGradient>
<linearGradient id="lid" x1="0" y1="0" x2="0" y2="1"><stop offset="0" stop-color="#C6AD7C"/><stop offset="1" stop-color="#9C8050"/></linearGradient>
<linearGradient id="tub" x1="0" y1="0" x2="0" y2="1"><stop offset="0" stop-color="#F3F2EC"/><stop offset="1" stop-color="#E3DABF"/></linearGradient>
</defs>
<rect width="600" height="600" fill="url(#bg)"/>
<g fill="#1B4D2E" opacity=".09">
<path d="M60 545c48-105 145-145 232-130-38 95-125 155-232 130z"/>
<path d="M552 118c-32 78-104 112-170 102 27-72 95-115 170-102z"/>
</g>
<circle cx="300" cy="330" r="180" fill="#fff" opacity=".42"/>
<ellipse cx="300" cy="512" rx="150" ry="16" fill="#1B4D2E" opacity=".15"/>
<rect x="192" y="252" width="216" height="60" rx="16" fill="url(#lid)"/>
<rect x="192" y="298" width="216" height="14" fill="#8F6C38"/>
<rect x="202" y="312" width="196" height="178" rx="22" fill="url(#tub)"/>
<rect x="228" y="342" width="144" height="116" rx="10" fill="#1B4D2E"/>
<path d="M300 356c-8 6-12 14-12 21 0 8 5 14 12 14s12-6 12-14c0-7-4-15-12-21z" fill="#74A17E"/>
<text x="300" y="418" text-anchor="middle" font-family="Arial, sans-serif" font-size="17" font-weight="bold" fill="#F4F2EB" letter-spacing="1">ORGANO+</text>
<rect x="274" y="428" width="52" height="3" rx="1.5" fill="#B9995C"/>
<text x="300" y="446" text-anchor="middle" font-family="Arial, sans-serif" font-size="12" fill="#CBD6BF">Repair Hair Mask</text>
</svg>
