<svg xmlns="http://www.w3.org/2000/svg" viewBox="0 0 600 600" role="img" aria-label="Scalp detox scrub placeholder">
<defs>
<linearGradient id="bg" x1="0" y1="0" x2="1" y2="1"><stop offset="0" stop-color="#E4E9DC"/><stop offset="1" stop-color="#CBD5BC"/></linearGradient>
<linearGradient id="lid" x1="0" y1="0" x2="0" y2="1"><stop offset="0" stop-color="#B98B5C"/><stop offset="1" stop-color="#916740"/></linearGradient>
<linearGradient id="jar" x1="0" y1="0" x2="0" y2="1"><stop offset="0" stop-color="#454C42"/><stop offset="1" stop-color="#23291F"/></linearGradient>
</defs>
<rect width="600" height="600" fill="url(#bg)"/>
<g fill="#1B4D2E" opacity=".1">
<path d="M45 545c48-105 145-145 232-130-38 95-125 155-232 130z"/>
<path d="M558 108c-32 80-105 115-172 105 28-74 96-118 172-105z"/>
</g>
<circle cx="300" cy="330" r="180" fill="#fff" opacity=".4"/>
<ellipse cx="300" cy="514" rx="130" ry="15" fill="#1B4D2E" opacity=".15"/>
<rect x="202" y="238" width="196" height="56" rx="16" fill="url(#lid)"/>
<rect x="202" y="282" width="196" height="10" fill="#7A5533"/>
<rect x="212" y="292" width="176" height="216" rx="24" fill="url(#jar)"/>
<rect x="224" y="336" width="152" height="112" rx="9" fill="#F4F2EB"/>
<path d="M300 350c-8 6-12 14-12 21 0 8 5 13 12 13s12-5 12-13c0-7-4-15-12-21z" fill="#4E8B60"/>
<text x="300" y="410" text-anchor="middle" font-family="Arial, sans-serif" font-size="16" font-weight="bold" fill="#1B4D2E" letter-spacing="1">ORGANO+</text>
<rect x="276" y="420" width="48" height="3" rx="1.5" fill="#B9995C"/>
<text x="300" y="438" text-anchor="middle" font-family="Arial, sans-serif" font-size="11.5" fill="#5B6B52">Scalp Detox Scrub</text>
</svg>
