<svg xmlns="http://www.w3.org/2000/svg" viewBox="0 0 600 600" role="img" aria-label="Botanical shampoo placeholder">
<defs>
<linearGradient id="bg" x1="0" y1="0" x2="1" y2="1"><stop offset="0" stop-color="#F3F2EC"/><stop offset="1" stop-color="#DEDCCB"/></linearGradient>
<linearGradient id="body" x1="0" y1="0" x2="0" y2="1"><stop offset="0" stop-color="#2E7048"/><stop offset="1" stop-color="#123420"/></linearGradient>
</defs>
<rect width="600" height="600" fill="url(#bg)"/>
<g fill="#1B4D2E" opacity=".08">
<path d="M70 560c45-100 140-140 225-125-35 90-120 150-225 125z"/>
<path d="M545 110c-30 75-100 108-165 98 26-70 92-112 165-98z"/>
</g>
<circle cx="300" cy="320" r="185" fill="#fff" opacity=".4"/>
<ellipse cx="300" cy="514" rx="120" ry="14" fill="#1B4D2E" opacity=".15"/>
<rect x="322" y="96" width="14" height="30" rx="4" fill="#123420"/>
<rect x="278" y="88" width="60" height="18" rx="8" fill="#123420"/>
<rect x="286" y="104" width="16" height="46" fill="#1B4D2E"/>
<rect x="272" y="148" width="44" height="26" rx="6" fill="#0E2A1A"/>
<path d="M272 174h44l50 52H222z" fill="url(#body)"/>
<rect x="222" y="224" width="156" height="288" rx="26" fill="url(#body)"/>
<rect x="238" y="248" width="13" height="230" rx="6.5" fill="#fff" opacity=".18"/>
<rect x="244" y="300" width="112" height="150" rx="10" fill="#F4F2EB"/>
<path d="M300 316c-9 7-13 16-13 24 0 9 6 15 13 15s13-6 13-15c0-8-4-17-13-24z" fill="#4E8B60"/>
<text x="300" y="386" text-anchor="middle" font-family="Arial, sans-serif" font-size="19" font-weight="bold" fill="#1B4D2E" letter-spacing="1">ORGANO+</text>
<rect x="272" y="398" width="56" height="3" rx="1.5" fill="#B9995C"/>
<text x="300" y="422" text-anchor="middle" font-family="Arial, sans-serif" font-size="13" fill="#5B6B52">Botanical Shampoo</text>
</svg>
