<svg xmlns="http://www.w3.org/2000/svg" viewBox="0 0 600 600" role="img" aria-label="Body wash placeholder">
<defs>
<linearGradient id="bg" x1="0" y1="0" x2="1" y2="1"><stop offset="0" stop-color="#E7F1EA"/><stop offset="1" stop-color="#CFE3D6"/></linearGradient>
<linearGradient id="body" x1="0" y1="0" x2="0" y2="1"><stop offset="0" stop-color="#4E9260"/><stop offset="1" stop-color="#2E7048"/></linearGradient>
</defs>
<rect width="600" height="600" fill="url(#bg)"/>
<g fill="#1B4D2E" opacity=".09">
<path d="M50 550c48-105 145-145 232-130-38 95-125 155-232 130z"/>
<path d="M555 105c-32 80-105 115-172 105 28-74 96-118 172-105z"/>
</g>
<circle cx="300" cy="320" r="185" fill="#fff" opacity=".4"/>
<ellipse cx="300" cy="514" rx="120" ry="14" fill="#1B4D2E" opacity=".15"/>
<rect x="262" y="140" width="76" height="56" rx="12" fill="#F4F2EB"/>
<rect x="262" y="168" width="76" height="5" fill="#D8CFB2"/>
<circle cx="300" cy="156" r="5" fill="#B9995C"/>
<rect x="228" y="196" width="144" height="310" rx="30" fill="url(#body)"/>
<rect x="244" y="222" width="13" height="250" rx="6.5" fill="#fff" opacity=".22"/>
<rect x="248" y="306" width="104" height="142" rx="10" fill="#F4F2EB"/>
<path d="M300 322c-9 7-13 16-13 24 0 9 6 15 13 15s13-6 13-15c0-8-4-17-13-24z" fill="#4E8B60"/>
<text x="300" y="390" text-anchor="middle" font-family="Arial, sans-serif" font-size="17" font-weight="bold" fill="#1B4D2E" letter-spacing="1">ORGANO+</text>
<rect x="274" y="400" width="52" height="3" rx="1.5" fill="#B9995C"/>
<text x="300" y="422" text-anchor="middle" font-family="Arial, sans-serif" font-size="12.5" fill="#5B6B52">Honey Body Wash</text>
</svg>
